<svg xmlns="http://www.w3.org/2000/svg" xmlns:xlink="http://www.w3.org/1999/xlink" width="431" zoomAndPan="magnify" viewBox="0 0 323.25 52.499999" height="70" preserveAspectRatio="xMidYMid meet" version="1.0"><defs><g/><clipPath id="40a2e560ae"><path d="M 1.152344 0 L 316 0 L 316 52.003906 L 1.152344 52.003906 Z M 1.152344 0 " clip-rule="nonzero"/></clipPath><clipPath id="b83ed430e3"><path d="M 0.152344 1.960938 L 50.125 1.960938 L 50.125 51.933594 L 0.152344 51.933594 Z M 0.152344 1.960938 " clip-rule="nonzero"/></clipPath><clipPath id="cc3a3b936d"><path d="M 63.785156 0 L 67.21875 0 L 67.21875 48.699219 L 63.785156 48.699219 Z M 63.785156 0 " clip-rule="nonzero"/></clipPath><clipPath id="1499bdc8e4"><path d="M 0.785156 0 L 4.21875 0 L 4.21875 48.699219 L 0.785156 48.699219 Z M 0.785156 0 " clip-rule="nonzero"/></clipPath><clipPath id="67c65a2c7a"><rect x="0" width="5" y="0" height="49"/></clipPath><clipPath id="3963833655"><path d="M 77 16 L 314.203125 16 L 314.203125 38 L 77 38 Z M 77 16 " clip-rule="nonzero"/></clipPath><clipPath id="f1e42442ff"><rect x="0" width="238" y="0" height="22"/></clipPath><clipPath id="0329cadbfd"><rect x="0" width="315" y="0" height="53"/></clipPath></defs><g clip-path="url(#40a2e560ae)"><g transform="matrix(1, 0, 0, 1, 1, 0)"><g clip-path="url(#0329cadbfd)"><g clip-path="url(#b83ed430e3)"><path fill="#ffffff" d="M 50.414062 20.304688 C 43.875 14.269531 37.355469 8.203125 30.855469 2.121094 C 30.746094 2.011719 30.589844 1.972656 30.441406 1.992188 C 26.953125 1.980469 23.457031 2 19.96875 1.992188 C 19.683594 1.960938 19.523438 2.238281 19.335938 2.394531 C 12.957031 8.332031 6.59375 14.289062 0.222656 20.226562 C 0.152344 20.375 0.183594 20.554688 0.171875 20.710938 C 0.171875 24.890625 0.171875 29.078125 0.171875 33.257812 C 0.171875 33.394531 0.164062 33.574219 0.300781 33.671875 C 6.851562 39.707031 13.320312 45.824219 19.820312 51.90625 C 20.71875 51.988281 21.640625 51.90625 22.546875 51.9375 C 25.1875 51.9375 27.8125 51.9375 30.453125 51.9375 C 30.609375 51.9375 30.808594 51.957031 30.914062 51.808594 C 32.257812 50.574219 33.5625 49.308594 34.886719 48.066406 C 40.042969 43.195312 45.230469 38.363281 50.40625 33.515625 C 50.4375 29.117188 50.414062 24.710938 50.414062 20.304688 Z M 47.542969 32.574219 C 46.988281 33.070312 46.472656 33.59375 45.910156 34.078125 C 45.929688 30.183594 45.921875 26.28125 45.910156 22.390625 C 45.949219 22.152344 45.703125 22.042969 45.554688 21.917969 C 44.566406 21.039062 43.609375 20.117188 42.601562 19.269531 C 41.96875 19.832031 41.378906 20.433594 40.734375 20.988281 C 41.546875 21.769531 42.394531 22.519531 43.214844 23.300781 C 43.265625 23.890625 43.222656 24.484375 43.234375 25.078125 C 43.222656 27.914062 43.242188 30.738281 43.222656 33.574219 L 43.195312 33.652344 C 39.234375 37.40625 35.234375 41.121094 31.261719 44.863281 C 31.171875 44.945312 31.082031 45.0625 30.945312 45.03125 C 28.109375 45.03125 25.273438 45.042969 22.449219 45.042969 C 19.882812 42.722656 17.410156 40.3125 14.84375 38 C 14.191406 38.5625 13.578125 39.164062 12.945312 39.746094 C 13.023438 39.914062 13.183594 40.023438 13.3125 40.152344 C 16 42.679688 18.734375 45.160156 21.390625 47.710938 C 24.703125 47.789062 28.03125 47.699219 31.339844 47.757812 C 30.847656 48.234375 30.363281 48.71875 29.859375 49.179688 C 26.835938 49.191406 23.8125 49.179688 20.789062 49.179688 C 16.421875 45.082031 12.007812 41.03125 7.652344 36.921875 C 7.542969 36.8125 7.375 36.722656 7.402344 36.535156 C 7.414062 32.121094 7.394531 27.707031 7.402344 23.289062 L 7.433594 23.210938 C 9.941406 20.9375 12.375 18.585938 14.871094 16.296875 C 17.3125 14.035156 19.761719 11.761719 22.210938 9.5 C 22.359375 9.351562 22.519531 9.210938 22.6875 9.09375 C 24.386719 9.113281 26.085938 9.085938 27.785156 9.09375 C 27.8125 9.113281 27.871094 9.144531 27.902344 9.164062 C 31.0625 12.085938 34.234375 15 37.40625 17.925781 C 38.078125 17.371094 38.671875 16.738281 39.3125 16.167969 C 35.914062 12.996094 32.507812 9.84375 29.089844 6.695312 C 28.949219 6.566406 28.800781 6.425781 28.59375 6.457031 C 26.390625 6.484375 24.179688 6.464844 21.976562 6.464844 C 21.777344 6.464844 21.53125 6.425781 21.390625 6.613281 C 16.15625 11.484375 10.910156 16.34375 5.707031 21.253906 C 5.398438 21.542969 5.101562 21.835938 4.777344 22.105469 C 4.757812 26.113281 4.777344 30.136719 4.765625 34.144531 C 4.144531 33.582031 3.542969 32.992188 2.898438 32.445312 C 2.878906 29.53125 2.898438 26.609375 2.890625 23.695312 C 2.898438 22.914062 2.859375 22.144531 2.898438 21.363281 C 3.582031 20.820312 4.175781 20.167969 4.824219 19.585938 C 9.875 14.824219 14.972656 10.101562 20.050781 5.371094 C 20.285156 5.152344 20.503906 4.914062 20.78125 4.746094 C 23.753906 4.757812 26.738281 4.738281 29.71875 4.757812 C 29.949219 4.875 30.117188 5.082031 30.3125 5.242188 C 35.84375 10.339844 41.347656 15.484375 46.890625 20.582031 C 47.175781 20.871094 47.5 21.117188 47.769531 21.421875 C 47.789062 25.046875 47.769531 28.671875 47.789062 32.289062 C 47.75 32.417969 47.621094 32.476562 47.542969 32.574219 Z M 47.542969 32.574219 " fill-opacity="1" fill-rule="nonzero"/></g><path fill="#ffffff" d="M 26.382812 10.359375 C 25.75 9.734375 24.613281 9.765625 24 10.40625 C 19.082031 14.914062 14.21875 19.488281 9.332031 24.011719 C 9.269531 24.148438 9.292969 24.308594 9.28125 24.457031 C 9.292969 26.429688 9.28125 28.40625 9.269531 30.382812 C 9.242188 30.53125 9.378906 30.621094 9.46875 30.707031 C 13.90625 34.808594 18.371094 38.867188 22.785156 42.988281 C 22.953125 43.175781 23.210938 43.117188 23.425781 43.125 C 24.535156 43.117188 25.640625 43.136719 26.746094 43.105469 C 26.738281 42.238281 26.746094 41.367188 26.738281 40.5 C 25.808594 40.449219 24.871094 40.527344 23.949219 40.457031 C 20.039062 36.8125 16.117188 33.1875 12.183594 29.574219 C 12.097656 29.484375 11.96875 29.414062 11.917969 29.277344 C 11.9375 27.914062 11.898438 26.539062 11.9375 25.175781 C 12.226562 24.960938 12.480469 24.691406 12.757812 24.457031 C 15.523438 21.847656 18.320312 19.269531 21.085938 16.671875 C 22.460938 15.398438 23.84375 14.140625 25.195312 12.847656 C 29.699219 16.9375 34.15625 21.066406 38.601562 25.195312 C 38.589844 26.539062 38.628906 27.894531 38.582031 29.238281 C 37.851562 29.988281 37.070312 30.6875 36.308594 31.398438 C 33.730469 33.789062 31.171875 36.199219 28.613281 38.621094 C 29.730469 39.679688 30.867188 40.695312 31.972656 41.761719 C 35.085938 38.828125 38.246094 35.945312 41.316406 32.972656 C 41.289062 30.015625 41.296875 27.054688 41.308594 24.101562 C 39.152344 22.105469 36.960938 20.136719 34.816406 18.125 C 32.011719 15.523438 29.195312 12.9375 26.382812 10.359375 Z M 26.382812 10.359375 " fill-opacity="1" fill-rule="nonzero"/><path fill="#ffffff" d="M 37.414062 27.6875 C 37.582031 27.160156 37.40625 26.570312 36.992188 26.214844 C 36.359375 25.671875 35.734375 25.097656 35.132812 24.535156 C 32.339844 21.964844 29.5625 19.367188 26.765625 16.789062 C 26.449219 16.484375 26.125 16.148438 25.699219 15.980469 C 25.355469 15.871094 24.988281 15.921875 24.640625 16.019531 C 24.019531 16.296875 23.59375 16.878906 23.070312 17.292969 C 19.859375 20.304688 16.601562 23.269531 13.421875 26.3125 C 13.054688 26.597656 12.957031 27.082031 13.015625 27.519531 C 13.046875 27.980469 13.441406 28.289062 13.746094 28.605469 C 17.234375 31.835938 20.710938 35.074219 24.226562 38.277344 C 24.742188 38.820312 25.691406 38.867188 26.242188 38.355469 C 29.71875 35.105469 33.199219 31.863281 36.664062 28.605469 C 36.953125 28.328125 37.277344 28.070312 37.414062 27.6875 Z M 25.246094 35.617188 C 22.242188 32.832031 19.21875 30.066406 16.246094 27.25 C 17.035156 26.597656 17.738281 25.847656 18.507812 25.167969 C 20.742188 23.082031 22.992188 21.015625 25.214844 18.921875 C 28.21875 21.699219 31.230469 24.464844 34.234375 27.242188 C 31.261719 30.046875 28.226562 32.8125 25.246094 35.617188 Z M 25.246094 35.617188 " fill-opacity="1" fill-rule="nonzero"/><path fill="#ffffff" d="M 23.980469 22.617188 C 22.609375 23.851562 21.265625 25.117188 19.910156 26.382812 C 19.652344 26.628906 19.546875 26.984375 19.585938 27.328125 C 19.554688 27.753906 19.871094 28.082031 20.15625 28.335938 C 21.363281 29.433594 22.558594 30.558594 23.761719 31.648438 C 24.140625 32.011719 24.554688 32.417969 25.117188 32.445312 C 25.589844 32.496094 26.054688 32.277344 26.382812 31.941406 C 27.617188 30.816406 28.851562 29.671875 30.085938 28.535156 C 30.390625 28.230469 30.785156 27.953125 30.90625 27.519531 C 31.003906 27.101562 30.886719 26.628906 30.550781 26.34375 C 29.453125 25.34375 28.347656 24.335938 27.25 23.328125 C 26.84375 22.984375 26.488281 22.558594 26.035156 22.273438 C 25.660156 22.015625 25.167969 22.003906 24.742188 22.132812 C 24.445312 22.210938 24.207031 22.421875 23.980469 22.617188 Z M 25.265625 25.078125 C 26.046875 25.769531 26.796875 26.5 27.566406 27.203125 C 26.796875 27.921875 26.027344 28.644531 25.234375 29.355469 C 24.453125 28.664062 23.714844 27.933594 22.953125 27.230469 C 23.703125 26.5 24.523438 25.828125 25.265625 25.078125 Z M 25.265625 25.078125 " fill-opacity="1" fill-rule="nonzero"/><g clip-path="url(#cc3a3b936d)"><g transform="matrix(1, 0, 0, 1, 63, 0)"><g clip-path="url(#67c65a2c7a)"><g clip-path="url(#1499bdc8e4)"><path fill="#ffffff" d="M 0.785156 0 L 4.21875 0 L 4.21875 48.699219 L 0.785156 48.699219 Z M 0.785156 0 " fill-opacity="1" fill-rule="nonzero"/></g></g></g></g><g clip-path="url(#3963833655)"><g transform="matrix(1, 0, 0, 1, 77, 16)"><g clip-path="url(#f1e42442ff)"><g fill="#ff00ff" fill-opacity="1"><g transform="translate(0.354622, 17.359714)"><g><path d="M 14.046875 0 L 3.34375 0 C 2.851562 0 2.40625 -0.117188 2 -0.359375 C 1.59375 -0.597656 1.269531 -0.921875 1.03125 -1.328125 C 0.789062 -1.734375 0.671875 -2.179688 0.671875 -2.671875 L 0.671875 -10.703125 C 0.671875 -11.191406 0.789062 -11.640625 1.03125 -12.046875 C 1.269531 -12.453125 1.59375 -12.773438 2 -13.015625 C 2.40625 -13.253906 2.851562 -13.375 3.34375 -13.375 L 14.046875 -13.375 L 14.046875 -10.703125 L 3.34375 -10.703125 L 3.34375 -2.671875 L 14.046875 -2.671875 Z M 14.046875 0 "/></g></g></g><g fill="#ff00ff" fill-opacity="1"><g transform="translate(17.702752, 17.359714)"><g><path d="M 11.375 0 L 3.34375 0 C 2.851562 0 2.40625 -0.117188 2 -0.359375 C 1.59375 -0.597656 1.269531 -0.921875 1.03125 -1.328125 C 0.789062 -1.734375 0.671875 -2.179688 0.671875 -2.671875 L 0.671875 -10.703125 C 0.671875 -11.191406 0.789062 -11.640625 1.03125 -12.046875 C 1.269531 -12.453125 1.59375 -12.773438 2 -13.015625 C 2.40625 -13.253906 2.851562 -13.375 3.34375 -13.375 L 11.375 -13.375 C 11.863281 -13.375 12.3125 -13.253906 12.71875 -13.015625 C 13.125 -12.773438 13.445312 -12.453125 13.6875 -12.046875 C 13.925781 -11.640625 14.046875 -11.191406 14.046875 -10.703125 L 14.046875 -2.671875 C 14.046875 -2.191406 13.925781 -1.75 13.6875 -1.34375 C 13.445312 -0.9375 13.125 -0.609375 12.71875 -0.359375 C 12.320312 -0.117188 11.875 0 11.375 0 Z M 3.34375 -10.703125 L 3.34375 -2.671875 L 11.375 -2.671875 L 11.375 -10.703125 Z M 3.34375 -10.703125 "/></g></g></g><g fill="#ff00ff" fill-opacity="1"><g transform="translate(35.050883, 17.359714)"><g><path d="M 11.375 0 L 0.671875 0 L 0.671875 -13.375 L 11.375 -13.375 C 11.863281 -13.375 12.3125 -13.253906 12.71875 -13.015625 C 13.125 -12.773438 13.445312 -12.453125 13.6875 -12.046875 C 13.925781 -11.640625 14.046875 -11.191406 14.046875 -10.703125 L 14.046875 -2.671875 C 14.046875 -2.179688 13.925781 -1.734375 13.6875 -1.328125 C 13.445312 -0.921875 13.125 -0.597656 12.71875 -0.359375 C 12.3125 -0.117188 11.863281 0 11.375 0 Z M 3.34375 -10.703125 L 3.34375 -2.671875 L 11.375 -2.671875 L 11.375 -10.703125 Z M 3.34375 -10.703125 "/></g></g></g><g fill="#ff00ff" fill-opacity="1"><g transform="translate(52.399015, 17.359714)"><g><path d="M 14.046875 -13.375 L 14.046875 -10.703125 L 3.34375 -10.703125 L 3.34375 -8.03125 L 14.046875 -8.03125 L 14.046875 -5.34375 L 3.34375 -5.34375 L 3.34375 -2.671875 L 14.046875 -2.671875 L 14.046875 0 L 3.34375 0 C 2.851562 0 2.40625 -0.117188 2 -0.359375 C 1.59375 -0.597656 1.269531 -0.921875 1.03125 -1.328125 C 0.789062 -1.734375 0.671875 -2.179688 0.671875 -2.671875 L 0.671875 -10.703125 C 0.671875 -11.191406 0.789062 -11.640625 1.03125 -12.046875 C 1.269531 -12.453125 1.59375 -12.773438 2 -13.015625 C 2.40625 -13.253906 2.851562 -13.375 3.34375 -13.375 Z M 14.046875 -13.375 "/></g></g></g><g fill="#ff00ff" fill-opacity="1"><g transform="translate(69.747143, 17.359714)"><g><path d="M 14.046875 -13.375 L 14.046875 -10.703125 L 3.34375 -10.703125 L 3.34375 -8.03125 L 14.046875 -8.03125 L 14.046875 -5.34375 L 3.34375 -5.34375 L 3.34375 0 L 0.671875 0 L 0.671875 -10.703125 C 0.671875 -11.191406 0.789062 -11.640625 1.03125 -12.046875 C 1.269531 -12.453125 1.59375 -12.773438 2 -13.015625 C 2.40625 -13.253906 2.851562 -13.375 3.34375 -13.375 Z M 14.046875 -13.375 "/></g></g></g><g fill="#ff00ff" fill-opacity="1"><g transform="translate(87.09527, 17.359714)"><g><path d="M 14.046875 0 L 3.34375 0 C 2.851562 0 2.40625 -0.117188 2 -0.359375 C 1.59375 -0.597656 1.269531 -0.921875 1.03125 -1.328125 C 0.789062 -1.734375 0.671875 -2.179688 0.671875 -2.671875 L 0.671875 -13.375 L 3.34375 -13.375 L 3.34375 -2.671875 L 14.046875 -2.671875 Z M 14.046875 0 "/></g></g></g><g fill="#ff00ff" fill-opacity="1"><g transform="translate(104.443408, 17.359714)"><g><path d="M 11.375 0 L 3.34375 0 C 2.851562 0 2.40625 -0.117188 2 -0.359375 C 1.59375 -0.597656 1.269531 -0.921875 1.03125 -1.328125 C 0.789062 -1.734375 0.671875 -2.179688 0.671875 -2.671875 L 0.671875 -10.703125 C 0.671875 -11.191406 0.789062 -11.640625 1.03125 -12.046875 C 1.269531 -12.453125 1.59375 -12.773438 2 -13.015625 C 2.40625 -13.253906 2.851562 -13.375 3.34375 -13.375 L 11.375 -13.375 C 11.863281 -13.375 12.3125 -13.253906 12.71875 -13.015625 C 13.125 -12.773438 13.445312 -12.453125 13.6875 -12.046875 C 13.925781 -11.640625 14.046875 -11.191406 14.046875 -10.703125 L 14.046875 -2.671875 C 14.046875 -2.191406 13.925781 -1.75 13.6875 -1.34375 C 13.445312 -0.9375 13.125 -0.609375 12.71875 -0.359375 C 12.320312 -0.117188 11.875 0 11.375 0 Z M 3.34375 -10.703125 L 3.34375 -2.671875 L 11.375 -2.671875 L 11.375 -10.703125 Z M 3.34375 -10.703125 "/></g></g></g><g fill="#ff00ff" fill-opacity="1"><g transform="translate(121.791536, 17.359714)"><g><path d="M 11.375 -2.671875 L 11.375 -13.375 L 14.046875 -13.375 L 14.046875 -2.671875 C 14.046875 -2.179688 13.925781 -1.734375 13.6875 -1.328125 C 13.445312 -0.921875 13.125 -0.597656 12.71875 -0.359375 C 12.3125 -0.117188 11.863281 0 11.375 0 L 3.34375 0 C 2.851562 0 2.40625 -0.117188 2 -0.359375 C 1.59375 -0.597656 1.269531 -0.921875 1.03125 -1.328125 C 0.789062 -1.734375 0.671875 -2.179688 0.671875 -2.671875 L 0.671875 -13.375 L 3.34375 -13.375 L 3.34375 -2.671875 L 6.015625 -2.671875 L 6.015625 -13.375 L 8.6875 -13.375 L 8.6875 -2.671875 Z M 11.375 -2.671875 "/></g></g></g><g fill="#ff00ff" fill-opacity="1"><g transform="translate(139.139663, 17.359714)"><g/></g></g><g fill="#ff00ff" fill-opacity="1"><g transform="translate(149.134055, 17.359714)"><g><path d="M 3.34375 0 L 0.671875 0 L 0.671875 -12.03125 C 0.671875 -12.40625 0.800781 -12.722656 1.0625 -12.984375 C 1.320312 -13.242188 1.632812 -13.375 2 -13.375 C 2.375 -13.375 2.691406 -13.238281 2.953125 -12.96875 L 11.375 -4.5625 L 11.375 -13.375 L 14.046875 -13.375 L 14.046875 -1.34375 C 14.046875 -0.96875 13.914062 -0.648438 13.65625 -0.390625 C 13.394531 -0.128906 13.078125 0 12.703125 0 C 12.335938 0 12.019531 -0.132812 11.75 -0.40625 L 3.34375 -8.8125 Z M 3.34375 0 "/></g></g></g><g fill="#ff00ff" fill-opacity="1"><g transform="translate(166.482193, 17.359714)"><g><path d="M 14.046875 -13.375 L 14.046875 -10.703125 L 3.34375 -10.703125 L 3.34375 -8.03125 L 14.046875 -8.03125 L 14.046875 -5.34375 L 3.34375 -5.34375 L 3.34375 -2.671875 L 14.046875 -2.671875 L 14.046875 0 L 3.34375 0 C 2.851562 0 2.40625 -0.117188 2 -0.359375 C 1.59375 -0.597656 1.269531 -0.921875 1.03125 -1.328125 C 0.789062 -1.734375 0.671875 -2.179688 0.671875 -2.671875 L 0.671875 -10.703125 C 0.671875 -11.191406 0.789062 -11.640625 1.03125 -12.046875 C 1.269531 -12.453125 1.59375 -12.773438 2 -13.015625 C 2.40625 -13.253906 2.851562 -13.375 3.34375 -13.375 Z M 14.046875 -13.375 "/></g></g></g><g fill="#ff00ff" fill-opacity="1"><g transform="translate(183.83031, 17.359714)"><g><path d="M 14.046875 -13.375 L 14.046875 -11.5 C 14.046875 -11.125 13.910156 -10.800781 13.640625 -10.53125 L 9.796875 -6.6875 L 13.640625 -2.84375 C 13.910156 -2.570312 14.046875 -2.25 14.046875 -1.875 L 14.046875 0 L 11.375 0 L 11.375 -1.34375 L 7.359375 -5.34375 L 3.34375 -1.34375 L 3.34375 0 L 0.671875 0 L 0.671875 -1.875 C 0.671875 -2.25 0.800781 -2.570312 1.0625 -2.84375 L 4.921875 -6.6875 L 1.0625 -10.53125 C 0.800781 -10.800781 0.671875 -11.125 0.671875 -11.5 L 0.671875 -13.375 L 3.34375 -13.375 L 3.34375 -12.03125 L 7.359375 -8.03125 L 11.375 -12.03125 L 11.375 -13.375 Z M 14.046875 -13.375 "/></g></g></g><g fill="#ff00ff" fill-opacity="1"><g transform="translate(201.178458, 17.359714)"><g><path d="M 11.375 0 L 3.34375 0 C 2.851562 0 2.40625 -0.117188 2 -0.359375 C 1.59375 -0.597656 1.269531 -0.921875 1.03125 -1.328125 C 0.789062 -1.734375 0.671875 -2.179688 0.671875 -2.671875 L 0.671875 -13.375 L 3.34375 -13.375 L 3.34375 -2.671875 L 11.375 -2.671875 L 11.375 -13.375 L 14.046875 -13.375 L 14.046875 -2.671875 C 14.046875 -2.179688 13.925781 -1.734375 13.6875 -1.328125 C 13.445312 -0.921875 13.125 -0.597656 12.71875 -0.359375 C 12.3125 -0.117188 11.863281 0 11.375 0 Z M 11.375 0 "/></g></g></g><g fill="#ff00ff" fill-opacity="1"><g transform="translate(218.526586, 17.359714)"><g><path d="M 14.046875 -13.375 L 14.046875 -10.703125 L 3.34375 -10.703125 L 3.34375 -8.03125 L 11.375 -8.03125 C 11.863281 -8.03125 12.3125 -7.910156 12.71875 -7.671875 C 13.125 -7.429688 13.445312 -7.101562 13.6875 -6.6875 C 13.925781 -6.28125 14.046875 -5.832031 14.046875 -5.34375 L 14.046875 -2.671875 C 14.046875 -2.179688 13.925781 -1.734375 13.6875 -1.328125 C 13.445312 -0.921875 13.125 -0.597656 12.71875 -0.359375 C 12.3125 -0.117188 11.863281 0 11.375 0 L 0.671875 0 L 0.671875 -2.671875 L 11.375 -2.671875 L 11.375 -5.34375 L 3.34375 -5.34375 C 2.851562 -5.34375 2.40625 -5.460938 2 -5.703125 C 1.59375 -5.941406 1.269531 -6.265625 1.03125 -6.671875 C 0.789062 -7.085938 0.671875 -7.539062 0.671875 -8.03125 L 0.671875 -10.703125 C 0.671875 -11.191406 0.789062 -11.640625 1.03125 -12.046875 C 1.269531 -12.453125 1.59375 -12.773438 2 -13.015625 C 2.40625 -13.253906 2.851562 -13.375 3.34375 -13.375 Z M 14.046875 -13.375 "/></g></g></g><g fill="#00ffff" fill-opacity="1"><g transform="translate(2.390206, 17.829664)"><g><path d="M 14.046875 0 L 3.34375 0 C 2.851562 0 2.40625 -0.117188 2 -0.359375 C 1.59375 -0.597656 1.269531 -0.921875 1.03125 -1.328125 C 0.789062 -1.734375 0.671875 -2.179688 0.671875 -2.671875 L 0.671875 -10.703125 C 0.671875 -11.191406 0.789062 -11.640625 1.03125 -12.046875 C 1.269531 -12.453125 1.59375 -12.773438 2 -13.015625 C 2.40625 -13.253906 2.851562 -13.375 3.34375 -13.375 L 14.046875 -13.375 L 14.046875 -10.703125 L 3.34375 -10.703125 L 3.34375 -2.671875 L 14.046875 -2.671875 Z M 14.046875 0 "/></g></g></g><g fill="#00ffff" fill-opacity="1"><g transform="translate(19.738336, 17.829664)"><g><path d="M 11.375 0 L 3.34375 0 C 2.851562 0 2.40625 -0.117188 2 -0.359375 C 1.59375 -0.597656 1.269531 -0.921875 1.03125 -1.328125 C 0.789062 -1.734375 0.671875 -2.179688 0.671875 -2.671875 L 0.671875 -10.703125 C 0.671875 -11.191406 0.789062 -11.640625 1.03125 -12.046875 C 1.269531 -12.453125 1.59375 -12.773438 2 -13.015625 C 2.40625 -13.253906 2.851562 -13.375 3.34375 -13.375 L 11.375 -13.375 C 11.863281 -13.375 12.3125 -13.253906 12.71875 -13.015625 C 13.125 -12.773438 13.445312 -12.453125 13.6875 -12.046875 C 13.925781 -11.640625 14.046875 -11.191406 14.046875 -10.703125 L 14.046875 -2.671875 C 14.046875 -2.191406 13.925781 -1.75 13.6875 -1.34375 C 13.445312 -0.9375 13.125 -0.609375 12.71875 -0.359375 C 12.320312 -0.117188 11.875 0 11.375 0 Z M 3.34375 -10.703125 L 3.34375 -2.671875 L 11.375 -2.671875 L 11.375 -10.703125 Z M 3.34375 -10.703125 "/></g></g></g><g fill="#00ffff" fill-opacity="1"><g transform="translate(37.086467, 17.829664)"><g><path d="M 11.375 0 L 0.671875 0 L 0.671875 -13.375 L 11.375 -13.375 C 11.863281 -13.375 12.3125 -13.253906 12.71875 -13.015625 C 13.125 -12.773438 13.445312 -12.453125 13.6875 -12.046875 C 13.925781 -11.640625 14.046875 -11.191406 14.046875 -10.703125 L 14.046875 -2.671875 C 14.046875 -2.179688 13.925781 -1.734375 13.6875 -1.328125 C 13.445312 -0.921875 13.125 -0.597656 12.71875 -0.359375 C 12.3125 -0.117188 11.863281 0 11.375 0 Z M 3.34375 -10.703125 L 3.34375 -2.671875 L 11.375 -2.671875 L 11.375 -10.703125 Z M 3.34375 -10.703125 "/></g></g></g><g fill="#00ffff" fill-opacity="1"><g transform="translate(54.434599, 17.829664)"><g><path d="M 14.046875 -13.375 L 14.046875 -10.703125 L 3.34375 -10.703125 L 3.34375 -8.03125 L 14.046875 -8.03125 L 14.046875 -5.34375 L 3.34375 -5.34375 L 3.34375 -2.671875 L 14.046875 -2.671875 L 14.046875 0 L 3.34375 0 C 2.851562 0 2.40625 -0.117188 2 -0.359375 C 1.59375 -0.597656 1.269531 -0.921875 1.03125 -1.328125 C 0.789062 -1.734375 0.671875 -2.179688 0.671875 -2.671875 L 0.671875 -10.703125 C 0.671875 -11.191406 0.789062 -11.640625 1.03125 -12.046875 C 1.269531 -12.453125 1.59375 -12.773438 2 -13.015625 C 2.40625 -13.253906 2.851562 -13.375 3.34375 -13.375 Z M 14.046875 -13.375 "/></g></g></g><g fill="#00ffff" fill-opacity="1"><g transform="translate(71.782727, 17.829664)"><g><path d="M 14.046875 -13.375 L 14.046875 -10.703125 L 3.34375 -10.703125 L 3.34375 -8.03125 L 14.046875 -8.03125 L 14.046875 -5.34375 L 3.34375 -5.34375 L 3.34375 0 L 0.671875 0 L 0.671875 -10.703125 C 0.671875 -11.191406 0.789062 -11.640625 1.03125 -12.046875 C 1.269531 -12.453125 1.59375 -12.773438 2 -13.015625 C 2.40625 -13.253906 2.851562 -13.375 3.34375 -13.375 Z M 14.046875 -13.375 "/></g></g></g><g fill="#00ffff" fill-opacity="1"><g transform="translate(89.130854, 17.829664)"><g><path d="M 14.046875 0 L 3.34375 0 C 2.851562 0 2.40625 -0.117188 2 -0.359375 C 1.59375 -0.597656 1.269531 -0.921875 1.03125 -1.328125 C 0.789062 -1.734375 0.671875 -2.179688 0.671875 -2.671875 L 0.671875 -13.375 L 3.34375 -13.375 L 3.34375 -2.671875 L 14.046875 -2.671875 Z M 14.046875 0 "/></g></g></g><g fill="#00ffff" fill-opacity="1"><g transform="translate(106.478992, 17.829664)"><g><path d="M 11.375 0 L 3.34375 0 C 2.851562 0 2.40625 -0.117188 2 -0.359375 C 1.59375 -0.597656 1.269531 -0.921875 1.03125 -1.328125 C 0.789062 -1.734375 0.671875 -2.179688 0.671875 -2.671875 L 0.671875 -10.703125 C 0.671875 -11.191406 0.789062 -11.640625 1.03125 -12.046875 C 1.269531 -12.453125 1.59375 -12.773438 2 -13.015625 C 2.40625 -13.253906 2.851562 -13.375 3.34375 -13.375 L 11.375 -13.375 C 11.863281 -13.375 12.3125 -13.253906 12.71875 -13.015625 C 13.125 -12.773438 13.445312 -12.453125 13.6875 -12.046875 C 13.925781 -11.640625 14.046875 -11.191406 14.046875 -10.703125 L 14.046875 -2.671875 C 14.046875 -2.191406 13.925781 -1.75 13.6875 -1.34375 C 13.445312 -0.9375 13.125 -0.609375 12.71875 -0.359375 C 12.320312 -0.117188 11.875 0 11.375 0 Z M 3.34375 -10.703125 L 3.34375 -2.671875 L 11.375 -2.671875 L 11.375 -10.703125 Z M 3.34375 -10.703125 "/></g></g></g><g fill="#00ffff" fill-opacity="1"><g transform="translate(123.82712, 17.829664)"><g><path d="M 11.375 -2.671875 L 11.375 -13.375 L 14.046875 -13.375 L 14.046875 -2.671875 C 14.046875 -2.179688 13.925781 -1.734375 13.6875 -1.328125 C 13.445312 -0.921875 13.125 -0.597656 12.71875 -0.359375 C 12.3125 -0.117188 11.863281 0 11.375 0 L 3.34375 0 C 2.851562 0 2.40625 -0.117188 2 -0.359375 C 1.59375 -0.597656 1.269531 -0.921875 1.03125 -1.328125 C 0.789062 -1.734375 0.671875 -2.179688 0.671875 -2.671875 L 0.671875 -13.375 L 3.34375 -13.375 L 3.34375 -2.671875 L 6.015625 -2.671875 L 6.015625 -13.375 L 8.6875 -13.375 L 8.6875 -2.671875 Z M 11.375 -2.671875 "/></g></g></g><g fill="#00ffff" fill-opacity="1"><g transform="translate(141.175247, 17.829664)"><g/></g></g><g fill="#00ffff" fill-opacity="1"><g transform="translate(151.169639, 17.829664)"><g><path d="M 3.34375 0 L 0.671875 0 L 0.671875 -12.03125 C 0.671875 -12.40625 0.800781 -12.722656 1.0625 -12.984375 C 1.320312 -13.242188 1.632812 -13.375 2 -13.375 C 2.375 -13.375 2.691406 -13.238281 2.953125 -12.96875 L 11.375 -4.5625 L 11.375 -13.375 L 14.046875 -13.375 L 14.046875 -1.34375 C 14.046875 -0.96875 13.914062 -0.648438 13.65625 -0.390625 C 13.394531 -0.128906 13.078125 0 12.703125 0 C 12.335938 0 12.019531 -0.132812 11.75 -0.40625 L 3.34375 -8.8125 Z M 3.34375 0 "/></g></g></g><g fill="#00ffff" fill-opacity="1"><g transform="translate(168.517777, 17.829664)"><g><path d="M 14.046875 -13.375 L 14.046875 -10.703125 L 3.34375 -10.703125 L 3.34375 -8.03125 L 14.046875 -8.03125 L 14.046875 -5.34375 L 3.34375 -5.34375 L 3.34375 -2.671875 L 14.046875 -2.671875 L 14.046875 0 L 3.34375 0 C 2.851562 0 2.40625 -0.117188 2 -0.359375 C 1.59375 -0.597656 1.269531 -0.921875 1.03125 -1.328125 C 0.789062 -1.734375 0.671875 -2.179688 0.671875 -2.671875 L 0.671875 -10.703125 C 0.671875 -11.191406 0.789062 -11.640625 1.03125 -12.046875 C 1.269531 -12.453125 1.59375 -12.773438 2 -13.015625 C 2.40625 -13.253906 2.851562 -13.375 3.34375 -13.375 Z M 14.046875 -13.375 "/></g></g></g><g fill="#00ffff" fill-opacity="1"><g transform="translate(185.865894, 17.829664)"><g><path d="M 14.046875 -13.375 L 14.046875 -11.5 C 14.046875 -11.125 13.910156 -10.800781 13.640625 -10.53125 L 9.796875 -6.6875 L 13.640625 -2.84375 C 13.910156 -2.570312 14.046875 -2.25 14.046875 -1.875 L 14.046875 0 L 11.375 0 L 11.375 -1.34375 L 7.359375 -5.34375 L 3.34375 -1.34375 L 3.34375 0 L 0.671875 0 L 0.671875 -1.875 C 0.671875 -2.25 0.800781 -2.570312 1.0625 -2.84375 L 4.921875 -6.6875 L 1.0625 -10.53125 C 0.800781 -10.800781 0.671875 -11.125 0.671875 -11.5 L 0.671875 -13.375 L 3.34375 -13.375 L 3.34375 -12.03125 L 7.359375 -8.03125 L 11.375 -12.03125 L 11.375 -13.375 Z M 14.046875 -13.375 "/></g></g></g><g fill="#00ffff" fill-opacity="1"><g transform="translate(203.214042, 17.829664)"><g><path d="M 11.375 0 L 3.34375 0 C 2.851562 0 2.40625 -0.117188 2 -0.359375 C 1.59375 -0.597656 1.269531 -0.921875 1.03125 -1.328125 C 0.789062 -1.734375 0.671875 -2.179688 0.671875 -2.671875 L 0.671875 -13.375 L 3.34375 -13.375 L 3.34375 -2.671875 L 11.375 -2.671875 L 11.375 -13.375 L 14.046875 -13.375 L 14.046875 -2.671875 C 14.046875 -2.179688 13.925781 -1.734375 13.6875 -1.328125 C 13.445312 -0.921875 13.125 -0.597656 12.71875 -0.359375 C 12.3125 -0.117188 11.863281 0 11.375 0 Z M 11.375 0 "/></g></g></g><g fill="#00ffff" fill-opacity="1"><g transform="translate(220.56217, 17.829664)"><g><path d="M 14.046875 -13.375 L 14.046875 -10.703125 L 3.34375 -10.703125 L 3.34375 -8.03125 L 11.375 -8.03125 C 11.863281 -8.03125 12.3125 -7.910156 12.71875 -7.671875 C 13.125 -7.429688 13.445312 -7.101562 13.6875 -6.6875 C 13.925781 -6.28125 14.046875 -5.832031 14.046875 -5.34375 L 14.046875 -2.671875 C 14.046875 -2.179688 13.925781 -1.734375 13.6875 -1.328125 C 13.445312 -0.921875 13.125 -0.597656 12.71875 -0.359375 C 12.3125 -0.117188 11.863281 0 11.375 0 L 0.671875 0 L 0.671875 -2.671875 L 11.375 -2.671875 L 11.375 -5.34375 L 3.34375 -5.34375 C 2.851562 -5.34375 2.40625 -5.460938 2 -5.703125 C 1.59375 -5.941406 1.269531 -6.265625 1.03125 -6.671875 C 0.789062 -7.085938 0.671875 -7.539062 0.671875 -8.03125 L 0.671875 -10.703125 C 0.671875 -11.191406 0.789062 -11.640625 1.03125 -12.046875 C 1.269531 -12.453125 1.59375 -12.773438 2 -13.015625 C 2.40625 -13.253906 2.851562 -13.375 3.34375 -13.375 Z M 14.046875 -13.375 "/></g></g></g><g fill="#ffffff" fill-opacity="1"><g transform="translate(1.372414, 17.594689)"><g><path d="M 14.046875 0 L 3.34375 0 C 2.851562 0 2.40625 -0.117188 2 -0.359375 C 1.59375 -0.597656 1.269531 -0.921875 1.03125 -1.328125 C 0.789062 -1.734375 0.671875 -2.179688 0.671875 -2.671875 L 0.671875 -10.703125 C 0.671875 -11.191406 0.789062 -11.640625 1.03125 -12.046875 C 1.269531 -12.453125 1.59375 -12.773438 2 -13.015625 C 2.40625 -13.253906 2.851562 -13.375 3.34375 -13.375 L 14.046875 -13.375 L 14.046875 -10.703125 L 3.34375 -10.703125 L 3.34375 -2.671875 L 14.046875 -2.671875 Z M 14.046875 0 "/></g></g></g><g fill="#ffffff" fill-opacity="1"><g transform="translate(18.720544, 17.594689)"><g><path d="M 11.375 0 L 3.34375 0 C 2.851562 0 2.40625 -0.117188 2 -0.359375 C 1.59375 -0.597656 1.269531 -0.921875 1.03125 -1.328125 C 0.789062 -1.734375 0.671875 -2.179688 0.671875 -2.671875 L 0.671875 -10.703125 C 0.671875 -11.191406 0.789062 -11.640625 1.03125 -12.046875 C 1.269531 -12.453125 1.59375 -12.773438 2 -13.015625 C 2.40625 -13.253906 2.851562 -13.375 3.34375 -13.375 L 11.375 -13.375 C 11.863281 -13.375 12.3125 -13.253906 12.71875 -13.015625 C 13.125 -12.773438 13.445312 -12.453125 13.6875 -12.046875 C 13.925781 -11.640625 14.046875 -11.191406 14.046875 -10.703125 L 14.046875 -2.671875 C 14.046875 -2.191406 13.925781 -1.75 13.6875 -1.34375 C 13.445312 -0.9375 13.125 -0.609375 12.71875 -0.359375 C 12.320312 -0.117188 11.875 0 11.375 0 Z M 3.34375 -10.703125 L 3.34375 -2.671875 L 11.375 -2.671875 L 11.375 -10.703125 Z M 3.34375 -10.703125 "/></g></g></g><g fill="#ffffff" fill-opacity="1"><g transform="translate(36.068675, 17.594689)"><g><path d="M 11.375 0 L 0.671875 0 L 0.671875 -13.375 L 11.375 -13.375 C 11.863281 -13.375 12.3125 -13.253906 12.71875 -13.015625 C 13.125 -12.773438 13.445312 -12.453125 13.6875 -12.046875 C 13.925781 -11.640625 14.046875 -11.191406 14.046875 -10.703125 L 14.046875 -2.671875 C 14.046875 -2.179688 13.925781 -1.734375 13.6875 -1.328125 C 13.445312 -0.921875 13.125 -0.597656 12.71875 -0.359375 C 12.3125 -0.117188 11.863281 0 11.375 0 Z M 3.34375 -10.703125 L 3.34375 -2.671875 L 11.375 -2.671875 L 11.375 -10.703125 Z M 3.34375 -10.703125 "/></g></g></g><g fill="#ffffff" fill-opacity="1"><g transform="translate(53.416807, 17.594689)"><g><path d="M 14.046875 -13.375 L 14.046875 -10.703125 L 3.34375 -10.703125 L 3.34375 -8.03125 L 14.046875 -8.03125 L 14.046875 -5.34375 L 3.34375 -5.34375 L 3.34375 -2.671875 L 14.046875 -2.671875 L 14.046875 0 L 3.34375 0 C 2.851562 0 2.40625 -0.117188 2 -0.359375 C 1.59375 -0.597656 1.269531 -0.921875 1.03125 -1.328125 C 0.789062 -1.734375 0.671875 -2.179688 0.671875 -2.671875 L 0.671875 -10.703125 C 0.671875 -11.191406 0.789062 -11.640625 1.03125 -12.046875 C 1.269531 -12.453125 1.59375 -12.773438 2 -13.015625 C 2.40625 -13.253906 2.851562 -13.375 3.34375 -13.375 Z M 14.046875 -13.375 "/></g></g></g><g fill="#ffffff" fill-opacity="1"><g transform="translate(70.764935, 17.594689)"><g><path d="M 14.046875 -13.375 L 14.046875 -10.703125 L 3.34375 -10.703125 L 3.34375 -8.03125 L 14.046875 -8.03125 L 14.046875 -5.34375 L 3.34375 -5.34375 L 3.34375 0 L 0.671875 0 L 0.671875 -10.703125 C 0.671875 -11.191406 0.789062 -11.640625 1.03125 -12.046875 C 1.269531 -12.453125 1.59375 -12.773438 2 -13.015625 C 2.40625 -13.253906 2.851562 -13.375 3.34375 -13.375 Z M 14.046875 -13.375 "/></g></g></g><g fill="#ffffff" fill-opacity="1"><g transform="translate(88.113062, 17.594689)"><g><path d="M 14.046875 0 L 3.34375 0 C 2.851562 0 2.40625 -0.117188 2 -0.359375 C 1.59375 -0.597656 1.269531 -0.921875 1.03125 -1.328125 C 0.789062 -1.734375 0.671875 -2.179688 0.671875 -2.671875 L 0.671875 -13.375 L 3.34375 -13.375 L 3.34375 -2.671875 L 14.046875 -2.671875 Z M 14.046875 0 "/></g></g></g><g fill="#ffffff" fill-opacity="1"><g transform="translate(105.4612, 17.594689)"><g><path d="M 11.375 0 L 3.34375 0 C 2.851562 0 2.40625 -0.117188 2 -0.359375 C 1.59375 -0.597656 1.269531 -0.921875 1.03125 -1.328125 C 0.789062 -1.734375 0.671875 -2.179688 0.671875 -2.671875 L 0.671875 -10.703125 C 0.671875 -11.191406 0.789062 -11.640625 1.03125 -12.046875 C 1.269531 -12.453125 1.59375 -12.773438 2 -13.015625 C 2.40625 -13.253906 2.851562 -13.375 3.34375 -13.375 L 11.375 -13.375 C 11.863281 -13.375 12.3125 -13.253906 12.71875 -13.015625 C 13.125 -12.773438 13.445312 -12.453125 13.6875 -12.046875 C 13.925781 -11.640625 14.046875 -11.191406 14.046875 -10.703125 L 14.046875 -2.671875 C 14.046875 -2.191406 13.925781 -1.75 13.6875 -1.34375 C 13.445312 -0.9375 13.125 -0.609375 12.71875 -0.359375 C 12.320312 -0.117188 11.875 0 11.375 0 Z M 3.34375 -10.703125 L 3.34375 -2.671875 L 11.375 -2.671875 L 11.375 -10.703125 Z M 3.34375 -10.703125 "/></g></g></g><g fill="#ffffff" fill-opacity="1"><g transform="translate(122.809328, 17.594689)"><g><path d="M 11.375 -2.671875 L 11.375 -13.375 L 14.046875 -13.375 L 14.046875 -2.671875 C 14.046875 -2.179688 13.925781 -1.734375 13.6875 -1.328125 C 13.445312 -0.921875 13.125 -0.597656 12.71875 -0.359375 C 12.3125 -0.117188 11.863281 0 11.375 0 L 3.34375 0 C 2.851562 0 2.40625 -0.117188 2 -0.359375 C 1.59375 -0.597656 1.269531 -0.921875 1.03125 -1.328125 C 0.789062 -1.734375 0.671875 -2.179688 0.671875 -2.671875 L 0.671875 -13.375 L 3.34375 -13.375 L 3.34375 -2.671875 L 6.015625 -2.671875 L 6.015625 -13.375 L 8.6875 -13.375 L 8.6875 -2.671875 Z M 11.375 -2.671875 "/></g></g></g><g fill="#ffffff" fill-opacity="1"><g transform="translate(140.157455, 17.594689)"><g/></g></g><g fill="#ffffff" fill-opacity="1"><g transform="translate(150.151847, 17.594689)"><g><path d="M 3.34375 0 L 0.671875 0 L 0.671875 -12.03125 C 0.671875 -12.40625 0.800781 -12.722656 1.0625 -12.984375 C 1.320312 -13.242188 1.632812 -13.375 2 -13.375 C 2.375 -13.375 2.691406 -13.238281 2.953125 -12.96875 L 11.375 -4.5625 L 11.375 -13.375 L 14.046875 -13.375 L 14.046875 -1.34375 C 14.046875 -0.96875 13.914062 -0.648438 13.65625 -0.390625 C 13.394531 -0.128906 13.078125 0 12.703125 0 C 12.335938 0 12.019531 -0.132812 11.75 -0.40625 L 3.34375 -8.8125 Z M 3.34375 0 "/></g></g></g><g fill="#ffffff" fill-opacity="1"><g transform="translate(167.499985, 17.594689)"><g><path d="M 14.046875 -13.375 L 14.046875 -10.703125 L 3.34375 -10.703125 L 3.34375 -8.03125 L 14.046875 -8.03125 L 14.046875 -5.34375 L 3.34375 -5.34375 L 3.34375 -2.671875 L 14.046875 -2.671875 L 14.046875 0 L 3.34375 0 C 2.851562 0 2.40625 -0.117188 2 -0.359375 C 1.59375 -0.597656 1.269531 -0.921875 1.03125 -1.328125 C 0.789062 -1.734375 0.671875 -2.179688 0.671875 -2.671875 L 0.671875 -10.703125 C 0.671875 -11.191406 0.789062 -11.640625 1.03125 -12.046875 C 1.269531 -12.453125 1.59375 -12.773438 2 -13.015625 C 2.40625 -13.253906 2.851562 -13.375 3.34375 -13.375 Z M 14.046875 -13.375 "/></g></g></g><g fill="#ffffff" fill-opacity="1"><g transform="translate(184.848102, 17.594689)"><g><path d="M 14.046875 -13.375 L 14.046875 -11.5 C 14.046875 -11.125 13.910156 -10.800781 13.640625 -10.53125 L 9.796875 -6.6875 L 13.640625 -2.84375 C 13.910156 -2.570312 14.046875 -2.25 14.046875 -1.875 L 14.046875 0 L 11.375 0 L 11.375 -1.34375 L 7.359375 -5.34375 L 3.34375 -1.34375 L 3.34375 0 L 0.671875 0 L 0.671875 -1.875 C 0.671875 -2.25 0.800781 -2.570312 1.0625 -2.84375 L 4.921875 -6.6875 L 1.0625 -10.53125 C 0.800781 -10.800781 0.671875 -11.125 0.671875 -11.5 L 0.671875 -13.375 L 3.34375 -13.375 L 3.34375 -12.03125 L 7.359375 -8.03125 L 11.375 -12.03125 L 11.375 -13.375 Z M 14.046875 -13.375 "/></g></g></g><g fill="#ffffff" fill-opacity="1"><g transform="translate(202.19625, 17.594689)"><g><path d="M 11.375 0 L 3.34375 0 C 2.851562 0 2.40625 -0.117188 2 -0.359375 C 1.59375 -0.597656 1.269531 -0.921875 1.03125 -1.328125 C 0.789062 -1.734375 0.671875 -2.179688 0.671875 -2.671875 L 0.671875 -13.375 L 3.34375 -13.375 L 3.34375 -2.671875 L 11.375 -2.671875 L 11.375 -13.375 L 14.046875 -13.375 L 14.046875 -2.671875 C 14.046875 -2.179688 13.925781 -1.734375 13.6875 -1.328125 C 13.445312 -0.921875 13.125 -0.597656 12.71875 -0.359375 C 12.3125 -0.117188 11.863281 0 11.375 0 Z M 11.375 0 "/></g></g></g><g fill="#ffffff" fill-opacity="1"><g transform="translate(219.544378, 17.594689)"><g><path d="M 14.046875 -13.375 L 14.046875 -10.703125 L 3.34375 -10.703125 L 3.34375 -8.03125 L 11.375 -8.03125 C 11.863281 -8.03125 12.3125 -7.910156 12.71875 -7.671875 C 13.125 -7.429688 13.445312 -7.101562 13.6875 -6.6875 C 13.925781 -6.28125 14.046875 -5.832031 14.046875 -5.34375 L 14.046875 -2.671875 C 14.046875 -2.179688 13.925781 -1.734375 13.6875 -1.328125 C 13.445312 -0.921875 13.125 -0.597656 12.71875 -0.359375 C 12.3125 -0.117188 11.863281 0 11.375 0 L 0.671875 0 L 0.671875 -2.671875 L 11.375 -2.671875 L 11.375 -5.34375 L 3.34375 -5.34375 C 2.851562 -5.34375 2.40625 -5.460938 2 -5.703125 C 1.59375 -5.941406 1.269531 -6.265625 1.03125 -6.671875 C 0.789062 -7.085938 0.671875 -7.539062 0.671875 -8.03125 L 0.671875 -10.703125 C 0.671875 -11.191406 0.789062 -11.640625 1.03125 -12.046875 C 1.269531 -12.453125 1.59375 -12.773438 2 -13.015625 C 2.40625 -13.253906 2.851562 -13.375 3.34375 -13.375 Z M 14.046875 -13.375 "/></g></g></g></g></g></g></g></g></g></svg>